<?xml version="1.0" encoding="UTF-8"?>
<!-- Created with Inkscape (http://www.inkscape.org/) -->
<svg width="938.74" height="1003.8" version="1.1" viewBox="0 0 938.74 1003.8" xmlns="http://www.w3.org/2000/svg">
 <g transform="translate(-29.372 2.442)">
  <g>
   <path d="m760.52 519.2-107.98-50.948v523.09m-40.153-774.86-151.84-71.698 209.6-88.445m179.9 369.36 108.31-45.569m-606.73-189.34 498.41 234.91 0.37566 135.71m-498.91-234.93 0.0116 522.99m-0.0376-522.99 4.4e-4 0.0174 108.98 51.144m-108.97-186.93-0.01006 135.77-102.54 42.75m-107.28-90.664 209.84-87.862m-312.67 39.881 102.81 48.016-0.04292 135.68m-102.67-48.637-0.074659-135.33 528.43-222.42 102.89 48.437 0.28568 135.35-58.044 24.533 345.97 163.62 0.27306 135.45-108.36 45.767-89.783-41.848 0.0377 426.38-108.36 45.437-102.67-48.094v-523.18l-89.069-42.12 7e-3 425.76-108.95 46.04-102.58-48.464v-431.72l-107.35 45.037z" style="fill-opacity:0;paint-order:normal;stroke-linecap:round;stroke-width:18.898;stroke:#16f275"/>
  </g>
 </g>
</svg>
