<?xml version="1.0" encoding="UTF-8" standalone="no"?>
<svg
   version="1.0"
   width="1000.000000pt"
   height="1000.000000pt"
   viewBox="0 0 1000.000000 1000.000000"
   preserveAspectRatio="xMidYMid meet"
   id="svg1"
   sodipodi:docname="tt00.svg"
   inkscape:version="1.3.2 (091e20e, 2023-11-25, custom)"
   xmlns:inkscape="http://www.inkscape.org/namespaces/inkscape"
   xmlns:sodipodi="http://sodipodi.sourceforge.net/DTD/sodipodi-0.dtd"
   xmlns="http://www.w3.org/2000/svg"
   xmlns:svg="http://www.w3.org/2000/svg">
  <defs
     id="defs1" />
  <sodipodi:namedview
     id="namedview1"
     pagecolor="#ffffff"
     bordercolor="#000000"
     borderopacity="0.25"
     inkscape:showpageshadow="2"
     inkscape:pageopacity="0.0"
     inkscape:pagecheckerboard="0"
     inkscape:deskcolor="#d1d1d1"
     inkscape:document-units="pt"
     inkscape:zoom="0.62207719"
     inkscape:cx="542.53717"
     inkscape:cy="616.48298"
     inkscape:window-width="1350"
     inkscape:window-height="1237"
     inkscape:window-x="1330"
     inkscape:window-y="102"
     inkscape:window-maximized="0"
     inkscape:current-layer="svg1" />
  <g
     transform="translate(0.000000,1000.000000) scale(0.100000,-0.100000)"
     fill="#000000"
     stroke="none"
     id="g1"
     style="stroke:#000000;stroke-opacity:1;fill:#000000;fill-opacity:1;stroke-width:138.99999998;stroke-dasharray:none">
    <path
       d="M 3015,8835 365,7722 v -702 -703 l 524,-247 524,-248 91,38 c 50,21 280,118 511,215 231,97 426,179 433,182 9,4 12,-429 12,-2143 V 1965 l 527,-248 527,-248 556,233 555,234 3,2118 c 2,2011 3,2118 20,2112 9,-4 196,-91 414,-194 l 398,-187 2,-2619 3,-2619 527,-249 527,-249 558,235 558,234 3,2117 c 2,1687 5,2116 15,2112 6,-2 200,-93 429,-201 l 417,-197 558,234 558,234 3,700 2,699 -1705,805 c -937,442 -1704,806 -1705,809 0,4 117,55 260,115 l 260,108 v 701 701 l -524,248 c -288,136 -528,247 -532,246 -5,0 -1201,-502 -2659,-1114 z m 3148,819 c 283,-134 453,-220 445,-225 -7,-4 -449,-190 -981,-413 -869,-365 -1047,-444 -1047,-465 0,-21 357,-193 2517,-1212 1322,-624 2403,-1136 2403,-1140 0,-6 -983,-419 -999,-419 -7,0 -1131,529 -2499,1175 L 3515,8130 2465,7689 1416,7248 l -41,19 c -22,11 -235,111 -473,223 -305,144 -428,207 -417,213 8,4 1177,496 2597,1092 1546,649 2591,1083 2603,1080 11,-2 226,-102 478,-221 z m 507,-916 v -643 l -252,-105 c -138,-58 -261,-109 -274,-113 -18,-7 -159,56 -731,326 -389,184 -717,336 -727,338 -18,4 1940,835 1972,838 9,1 12,-134 12,-641 z M 3478,7398 3475,6755 2470,6333 c -553,-232 -1008,-422 -1012,-423 -5,0 -8,289 -8,643 v 642 l 1003,422 c 551,232 1008,422 1015,422 10,1 12,-130 10,-641 z m 2534,-517 2453,-1159 3,-641 c 1,-375 -2,-641 -7,-641 -5,0 -438,203 -962,450 -905,428 -976.3785,438.2779 -981,438 l -15.2123,6.1816 v -2588 C 6502.7877,531.18159 6488,139 6476,142 c -8,2 -224,102 -480,223 l -466,220 -2,2619 -3,2619 -987,466 -988,466 v 643 c 0,353 2,642 4,642 2,0 1108,-522 2458,-1159 z m -4879,431 247,-116 v -643 c 0,-354 -2,-643 -3,-643 -2,0 -217,101 -478,224 l -474,224 -3,645 -2,646 232,-110 c 128,-61 344,-163 481,-227 z M 3476,1562 c -3,-2 -218,97 -478,220 l -473,223 -3,2141 -2,2141 477,200 478,200 3,-2560 c 1,-1408 0,-2562 -2,-2565 z m 591,4881 503,-238 -3,-2113 -2,-2114 -245,-103 c -135,-56 -363,-152 -507,-213 l -263,-110 v 2564 c 0,1410 3,2564 7,2564 4,0 233,-107 510,-237 z m 5493,-943 c 0,-501 -3,-639 -12,-643 -7,-3 -229,-96 -493,-207 -264,-111 -490,-206 -503,-211 l -22,-9 2,646 3,645 505,213 c 278,117 508,211 513,209 4,-2 7,-291 7,-643 z M 7015,5050 c 248,-117 476,-225 508,-241 l 57,-29 V 2671 c 0,-1678 -3,-2110 -12,-2114 -12,-4 -907,-380 -985,-413 l -33,-14 v 2570 c 0,1414 3,2569 8,2567 4,-3 210,-100 457,-217 z"
       id="path1"
       style="fill:#000000;fill-opacity:1;stroke:#000000;stroke-width:139;stroke-dasharray:none;stroke-opacity:1"
       sodipodi:nodetypes="cccccccscscccccccccccccccccccccccccccccccccccscssccccccccccsccccccsccccscccccccscccssccccccsscccssccccccccccccccccccccccsscscsccccccscccscccscc" />
  </g>
</svg>
