<?xml version="1.0" encoding="UTF-8" standalone="no"?>
<!-- Created with Inkscape (http://www.inkscape.org/) -->

<svg
   version="1.1"
   id="svg1"
   width="269.81372"
   height="288.36652"
   viewBox="0 0 269.81372 288.36652"
   sodipodi:docname="ttlog233322.svg"
   inkscape:version="1.3.2 (091e20e, 2023-11-25, custom)"
   xmlns:inkscape="http://www.inkscape.org/namespaces/inkscape"
   xmlns:sodipodi="http://sodipodi.sourceforge.net/DTD/sodipodi-0.dtd"
   xmlns="http://www.w3.org/2000/svg"
   xmlns:svg="http://www.w3.org/2000/svg">
  <defs
     id="defs1" />
  <sodipodi:namedview
     id="namedview1"
     pagecolor="#ffffff"
     bordercolor="#000000"
     borderopacity="0.25"
     inkscape:showpageshadow="2"
     inkscape:pageopacity="0.0"
     inkscape:pagecheckerboard="0"
     inkscape:deskcolor="#d1d1d1"
     inkscape:zoom="1.157"
     inkscape:cx="80.812446"
     inkscape:cy="355.66119"
     inkscape:window-width="1350"
     inkscape:window-height="1237"
     inkscape:window-x="689"
     inkscape:window-y="87"
     inkscape:window-maximized="0"
     inkscape:current-layer="g1"
     inkscape:clip-to-page="false" />
  <g
     inkscape:groupmode="layer"
     inkscape:label="Image"
     id="g1"
     transform="translate(-36,-5.1951402)">
    <path
       style="fill:#000000;fill-opacity:1;stroke:#000000;stroke-width:8.15599899;stroke-linecap:square;stroke-linejoin:round;stroke-dasharray:none;stroke-opacity:1;paint-order:markers fill stroke"
       d="m 200.25141,285.73168 -14.99813,-7.10086 -0.0734,-76.26177 -0.0734,-76.26177 -12.44936,-5.87995 c -6.84715,-3.23398 -12.54735,-5.87981 -12.66711,-5.87963 -0.11976,1.8e-4 -0.25081,27.86959 -0.29122,61.93202 l -0.0735,61.9317 -15.87182,6.65981 -15.87181,6.65982 -14.99813,-7.08984 -14.998135,-7.08984 -0.145613,-62.77399 -0.145613,-62.774 -15.420205,6.46863 -15.420205,6.46862 -2.053349,-0.95187 c -1.129342,-0.52353 -7.885149,-3.70728 -15.012903,-7.07501 L 36.728065,110.59061 V 90.453111 70.315611 L 113.32048,38.150433 C 155.4463,20.459584 190.18819,5.9585057 190.52466,5.9258143 c 0.33647,-0.032691 7.31012,3.0858007 15.497,6.9299827 l 14.88522,6.989422 0.0108,20.099611 0.0108,20.099611 -7.98388,3.339254 c -4.39113,1.836593 -7.94199,3.407032 -7.8908,3.489868 0.0512,0.08284 22.5793,10.765716 50.06246,23.739731 l 49.96939,23.589116 -0.0692,20.03948 -0.0692,20.03948 -15.93748,6.69023 -15.93748,6.69022 -12.65849,-5.97986 c -6.96217,-3.28892 -12.73165,-5.97986 -12.82108,-5.97986 -0.0894,0 -0.16258,27.82744 -0.16258,61.83876 v 61.83876 l -0.80087,0.36506 c -1.4448,0.65858 -31.21622,13.12529 -31.29892,13.10635 -0.0444,-0.0102 -6.82984,-3.21387 -15.07881,-7.11935 z m 15.07149,-146.0378 c 0.11983,0.005 13.06093,6.08009 28.75801,13.50006 l 28.54014,13.49084 0.0749,-19.2351 c 0.0412,-10.57931 -0.0243,-19.33312 -0.14561,-19.4529 -0.22806,-0.22524 -143.84349,-68.108 -144.09196,-68.108 -0.0769,0 -0.13977,8.692709 -0.13977,19.317131 v 19.317131 l 28.75856,13.584558 28.75856,13.58456 0.0733,76.26101 0.0734,76.26101 14.48795,6.83977 14.48794,6.83977 0.0734,-76.10452 c 0.0404,-41.85749 0.1714,-76.10038 0.29123,-76.09532 z m 16.08968,145.60732 c 8.0888,-3.40306 14.87072,-6.25161 15.07094,-6.33012 0.28964,-0.11356 0.36384,-12.7686 0.36306,-61.92428 l -9.7e-4,-61.78154 -14.48751,-6.82142 c -7.96814,-3.75178 -14.97897,-7.0635 -15.57962,-7.35937 l -1.0921,-0.53795 v 75.61301 c 0,71.87232 0.0252,75.60598 0.50965,75.47103 0.2803,-0.0781 7.12775,-2.9263 15.21655,-6.32936 z M 127.44493,174.76021 c 0,-45.02215 -0.10656,-75.524445 -0.26352,-75.427441 -0.19176,0.118518 -25.65207,10.855361 -28.495034,12.016611 -0.289642,0.11832 -0.363835,12.95246 -0.363057,62.80392 l 8.74e-4,62.65522 14.196287,6.7402 c 7.80796,3.70711 14.3601,6.75406 14.56032,6.771 0.29037,0.0246 0.36403,-15.26498 0.36403,-75.55951 z m 16.74549,69.06816 14.85252,-6.237 0.0735,-61.86369 0.0735,-61.8637 -15.21723,-7.1864 c -8.36947,-3.95252 -15.31551,-7.185429 -15.43564,-7.18424 -0.12013,0.0012 -0.21842,33.95337 -0.21842,75.4493 0,71.72205 0.0252,75.43912 0.50965,75.28493 0.2803,-0.0892 7.19328,-2.96886 15.36216,-6.3992 z m 144.76931,-83.69782 15.11371,-6.34691 0.0749,-19.28097 c 0.0412,-10.60453 -0.0243,-19.27898 -0.14561,-19.27655 -0.12128,0.002 -7.03519,2.8674 -15.36425,6.36659 l -15.14375,6.36218 -0.0749,19.26128 c -0.0413,10.61881 0.0375,19.26129 0.17564,19.26129 0.13779,0 7.0517,-2.85611 15.36425,-6.34691 z m -0.27291,-39.39218 c 8.19548,-3.4346 14.81359,-6.3341 14.70691,-6.44332 -0.10668,-0.10923 -32.43267,-15.421195 -71.83554,-34.026595 -39.40286,-18.605401 -71.8283,-34.007728 -72.05653,-34.227393 -0.35541,-0.34208 -0.20914,-0.488165 1.01929,-1.018039 0.78884,-0.340257 14.40837,-6.062767 30.26562,-12.716689 15.85725,-6.653921 28.86059,-12.121591 28.89631,-12.150376 C 219.7717,20.084389 191.54603,6.7627435 191.06677,6.6500379 190.77015,6.5802814 39.564615,69.831003 38.136775,70.622121 c -0.186256,0.103196 6.144338,3.248444 14.067987,6.989439 L 66.611395,84.413368 97.195681,71.575696 127.77997,58.738022 200.0549,92.930273 c 46.14594,21.830997 72.53813,34.167047 73.00299,34.122547 0.40043,-0.0383 7.43345,-2.87984 15.62893,-6.31445 z M 66.287494,104.34593 V 85.024611 L 55.00249,79.690695 C 48.795738,76.757042 42.242228,73.661497 40.439134,72.811706 l -3.278352,-1.545073 0.07487,19.418308 0.07487,19.418309 14.270069,6.76286 c 7.848538,3.71957 14.368358,6.77147 14.488489,6.782 0.12013,0.0105 0.218419,-8.67545 0.218419,-19.30218 z m 31.015559,6.71721 29.996267,-12.596963 0.0749,-19.320657 c 0.071,-18.324511 0.0485,-19.311152 -0.43684,-19.136271 -0.28146,0.101414 -13.84624,5.775569 -30.143973,12.609234 L 67.161172,85.043331 v 19.311959 c 0,10.62158 0.03276,19.31035 0.07281,19.30839 0.04004,-0.002 13.571127,-5.67221 30.069075,-12.60054 z M 212.1145,62.877504 l 8.22277,-3.425562 0.004,-19.324875 c 0.004,-18.284651 -0.0231,-19.31454 -0.50529,-19.132898 -2.50472,0.943493 -59.17899,24.805286 -59.17757,24.915768 0.002,0.163226 42.48499,20.304191 42.94173,20.358499 0.16017,0.01905 3.99147,-1.506875 8.51399,-3.390932 z"
       id="path1" />
  </g>
</svg>
